<svg viewBox="0 0 1024 1024"  xmlns="http://www.w3.org/2000/svg" xmlns:xlink="http://www.w3.org/1999/xlink"><path fill="#828282" d="M341.143 240.571v670.286q0 14.286-7.143 24.286t-20.857 10q-9.714 0-18.857-4.571l-265.714-133.143q-12-5.714-20.286-19.143t-8.286-26.571v-651.429q0-11.429 5.714-19.429t16.571-8q8 0 25.143 8.571l292 146.286q1.714 1.714 1.714 2.857zM377.714 298.286l305.143 494.857-305.143-152v-342.857zM1024 308.571v602.286q0 14.286-8 23.143t-21.714 8.857-26.857-7.429l-252-125.714zM1022.286 240q0 1.714-146.571 239.714t-171.714 278.571l-222.857-362.286 185.143-301.143q9.714-16 29.714-16 8 0 14.857 3.429l309.143 154.286q2.286 1.143 2.286 3.429z"/></svg>

